<?xml version="1.0" encoding="UTF-8"?>
<svg id="Layer_1" xmlns="http://www.w3.org/2000/svg" xmlns:xlink="http://www.w3.org/1999/xlink" version="1.1" viewBox="0 0 79.4 76">
  <!-- Generator: Adobe Illustrator 29.2.1, SVG Export Plug-In . SVG Version: 2.1.0 Build 116)  -->
  <defs>
    <style>
      .st0 {
        fill: none;
      }

      .st1, .st2 {
        fill: #3b5fc4;
      }

      .st3 {
        clip-path: url(#clippath-1);
      }

      .st2, .st4 {
        display: none;
      }

      .st4 {
        fill: #160747;
      }

      .st5 {
        clip-path: url(#clippath);
      }
    </style>
    <clipPath id="clippath">
      <rect class="st0" x="-16.9" width="125" height="76"/>
    </clipPath>
    <clipPath id="clippath-1">
      <rect class="st0" x="11.1" y="9.9" width="230" height="56.1"/>
    </clipPath>
  </defs>
  <g class="st5">
    <g id="edu-pilot-hub-logo-horizontal">
      <g id="Group_173333">
        <g class="st3">
          <g id="Group_173278">
            <path id="Path_5714" class="st4" d="M82.1,35.1h10.7c7,0,10.1,3.7,10.1,8.8s-3.1,8.8-10.1,8.8h-5v8.8h-5.6v-26.4ZM97,43.9c0-2.4-1.4-3.9-4.4-3.9h-4.8v7.8h4.8c3.1,0,4.4-1.5,4.4-3.9"/>
            <path id="Path_5715" class="st4" d="M107.4,36.6c0-1.7,1.3-3,3-3,1.7,0,3,1.3,3,3,0,1.7-1.3,3-3,3,0,0,0,0,0,0-1.7,0-3-1.4-3-3M107.6,41.9h5.5v19.6h-5.5v-19.6Z"/>
            <rect id="Rectangle_161251" class="st4" x="118.9" y="35.1" width="5.5" height="26.4"/>
            <path id="Path_5716" class="st4" d="M129,51.7c0-7.1,4.9-10.2,9.8-10.2s9.8,3,9.8,10.2-4.9,10.2-9.8,10.2-9.8-3-9.8-10.2M143.5,51.7c0-3.9-2-5.6-4.7-5.6s-4.7,1.7-4.7,5.6,2,5.6,4.7,5.6,4.7-1.7,4.7-5.6"/>
            <path id="Path_5717" class="st4" d="M154.6,55.6v-9.5h-3.3v-4.2h3.3v-5h5.5v5h3.9v4.2h-3.9v8.7c0,1.5.5,2.5,2.5,2.5.5,0,1,0,1.5,0v4.1c-1,.3-2,.4-3,.4-3.9,0-6.5-1.8-6.5-6.1"/>
            <path id="Path_5718" class="st4" d="M185.3,50.6h-10.3v10.8h-5.6v-26.4h5.7v10.8h10.3v-10.8h5.6v26.4h-5.6v-10.8Z"/>
            <path id="Path_5719" class="st4" d="M205.9,57.3c2.3,0,4.1-1.3,4.1-4.3v-11.1h5.5v19.6h-5.5v-4.1h-.2c-.3,1.8-2.2,4.5-6.2,4.5s-6.7-2.4-6.7-7.5v-12.4h5.5v11.1c0,3,1.3,4.3,3.6,4.3"/>
            <path id="Path_5720" class="st4" d="M226.8,58.6v2.8h-5.5v-26.4h5.5v9.6c.7-1.7,2.9-3.2,5.8-3.2,4.1,0,8.6,3,8.6,10.2s-4.5,10.2-8.6,10.2-5-1.5-5.8-3.2M235.9,51.7c0-3.8-2.3-5.6-4.7-5.6s-4.7,1.8-4.7,5.6,2.3,5.6,4.7,5.6,4.7-1.8,4.7-5.6"/>
            <path id="Path_5721" class="st2" d="M82.1,14.2h8.2v2.5h-5.4v2.3h4.9v2.2h-4.9v2.4h5.5v2.5h-8.3v-11.8Z"/>
            <path id="Path_5722" class="st2" d="M92.6,14.2h4.6c3.7,0,5.6,2.1,5.6,5.9s-1.9,5.9-5.6,5.9h-4.6v-11.8ZM99.9,20.1c0-2.4-.7-3.4-3-3.4h-1.5v6.9h1.5c2.3,0,3-1,3-3.4"/>
            <path id="Path_5723" class="st2" d="M105.1,21.5v-7.3h2.8v7.1c0,1.6.8,2.4,2.1,2.4s2.1-.8,2.1-2.4v-7.1h2.9v7.3c0,3.2-2.1,4.6-4.9,4.6s-4.9-1.5-4.9-4.6"/>
            <path id="Path_5724" class="st1" d="M35.7,39.8l22.4,18.9c-11.4,10.5-29.2,9.7-39.7-1.7-10.5-11.4-9.7-29.2,1.7-39.7,10.7-9.8,27.2-9.8,37.9,0l-22.4,18.9c-1,.8-1.1,2.3-.2,3.3,0,0,.2.2.2.2"/>
            <path id="Path_5725" class="st1" d="M67.3,38c0,5.6-1.7,11.1-4.8,15.8-8.7-3.6-12.9-13.5-9.3-22.2,1.7-4.2,5.1-7.6,9.3-9.3,3.1,4.7,4.8,10.1,4.8,15.8"/>
          </g>
        </g>
      </g>
    </g>
  </g>
</svg>